<svg id="Calque_1" data-name="Calque 1" xmlns="http://www.w3.org/2000/svg" xmlns:xlink="http://www.w3.org/1999/xlink" viewBox="0 0 301.33 151.95"><defs><style>.cls-1{fill:none;}.cls-2{clip-path:url(#clip-path);}.cls-3{fill:#f5802a;}.cls-4{fill:#00728f;}</style><clipPath id="clip-path" transform="translate(-7.63 -6.96)"><rect class="cls-1" width="314.4" height="167.95"/></clipPath></defs><title>logo-saint-raph</title><g class="cls-2"><path class="cls-3" d="M104.68,119.94H99.27v-.14l.07-4.64a15,15,0,0,1-1.55,2.37A7.51,7.51,0,0,1,96.23,119a5.15,5.15,0,0,1-1.69.75,8.67,8.67,0,0,1-1.92.21,15,15,0,0,1-5.19-.79,8.91,8.91,0,0,1-3.53-2.29,9.7,9.7,0,0,1-2.08-3.64,15.15,15.15,0,0,1,0-9.64,9.77,9.77,0,0,1,2.09-3.64,9.13,9.13,0,0,1,3.52-2.32,14.7,14.7,0,0,1,5.19-.81,16.21,16.21,0,0,1,5.45.81,9,9,0,0,1,5.82,6,17.44,17.44,0,0,1,.79,4.82v11.54Zm-5.34-12.38a13.76,13.76,0,0,0-.46-3.87,6.2,6.2,0,0,0-1.32-2.48,4.87,4.87,0,0,0-2.06-1.32,7.71,7.71,0,0,0-2.64-.35,8,8,0,0,0-2.64.33,4.65,4.65,0,0,0-2.06,1.3,6.16,6.16,0,0,0-1.32,2.5,14,14,0,0,0-.46,3.9v1.62a14,14,0,0,0,.46,3.89,6.18,6.18,0,0,0,1.32,2.5,4.56,4.56,0,0,0,2.06,1.3,7.89,7.89,0,0,0,2.64.32,5.27,5.27,0,0,0,4.7-2.41q1.78-2.5,1.79-7.14Z" transform="translate(-7.63 -6.96)"/><path class="cls-3" d="M106.47,149.78a2.36,2.36,0,0,0,1.25-1.23c.26-.57,0-24.25.06-25.19s.07-2.12.07-3.55V108.4a17.53,17.53,0,0,1,.79-4.82,9.59,9.59,0,0,1,2.11-3.64,9.12,9.12,0,0,1,3.67-2.32,16.08,16.08,0,0,1,5.46-.82,14.79,14.79,0,0,1,5.2.81,9.13,9.13,0,0,1,3.53,2.32,9.77,9.77,0,0,1,2.09,3.64,15,15,0,0,1,0,9.64,9.69,9.69,0,0,1-2.09,3.64,8.9,8.9,0,0,1-3.53,2.3,15.12,15.12,0,0,1-5.2.79,18.68,18.68,0,0,1-3.7-.33,12.37,12.37,0,0,1-3-1l0,1.16c0,1.43,0,2.62,0,3.56s-.24,24.61,0,25.19a2.32,2.32,0,0,0,1.07,1.23,4.72,4.72,0,0,0,2.11.37h.47v2.09H104.08v-2.09a6.18,6.18,0,0,0,2.39-.37m7.13-36.73a6.18,6.18,0,0,0,1.33,2.48,4.86,4.86,0,0,0,2.07,1.32,7.73,7.73,0,0,0,2.66.34,7.94,7.94,0,0,0,2.65-.32,4.6,4.6,0,0,0,2.07-1.3,6.21,6.21,0,0,0,1.32-2.5,13.93,13.93,0,0,0,.47-3.89v-1.62a14,14,0,0,0-.47-3.9,6.19,6.19,0,0,0-1.32-2.5,4.68,4.68,0,0,0-2.07-1.3,8.09,8.09,0,0,0-2.65-.33,7.83,7.83,0,0,0-2.66.35,4.93,4.93,0,0,0-2.07,1.32,6.18,6.18,0,0,0-1.33,2.48,13.75,13.75,0,0,0-.46,3.87v1.62a13.7,13.7,0,0,0,.46,3.87" transform="translate(-7.63 -6.96)"/><path class="cls-3" d="M146.23,87.23a4.86,4.86,0,0,0-2.14.37A2.38,2.38,0,0,0,143,88.83a6.62,6.62,0,0,0-.44,2.28c0,.95-.07,2.13-.07,3.56v3.76a12.42,12.42,0,0,1,6.26-1.49,14.36,14.36,0,0,1,5.29.86,8.88,8.88,0,0,1,3.55,2.43,9.78,9.78,0,0,1,2,3.83,19.06,19.06,0,0,1,.63,5.08v1.49c0,1.42,0,2.6.07,3.55a6.66,6.66,0,0,0,.44,2.27,2.34,2.34,0,0,0,1.11,1.23,4.86,4.86,0,0,0,2.13.37l.46.14v1.94H150.67v-2.08a6.15,6.15,0,0,0,2.39-.37,2.36,2.36,0,0,0,1.25-1.23,6.23,6.23,0,0,0,.47-2.27c0-.94.07-2.13.07-3.55V107.7a17.12,17.12,0,0,0-.37-3.87,6.3,6.3,0,0,0-1.12-2.49,4.07,4.07,0,0,0-1.85-1.32,7,7,0,0,0-2.55-.35,8.11,8.11,0,0,0-2.57.31,4.65,4.65,0,0,0-2,1.23,6,6,0,0,0-1.34,2.36,12.7,12.7,0,0,0-.54,3.67v3.39c0,1.42,0,2.6.07,3.55a6.15,6.15,0,0,0,.47,2.27,2.34,2.34,0,0,0,1.25,1.23,6.14,6.14,0,0,0,2.39.37v2.08H132.9v-2.08h.47a4.88,4.88,0,0,0,2.13-.37,2.35,2.35,0,0,0,1.11-1.23,6.71,6.71,0,0,0,.44-2.27q.07-1.42.07-3.56v-16c0-1.43,0-2.61-.07-3.55a6.35,6.35,0,0,0-.47-2.28,2.35,2.35,0,0,0-1.25-1.23,6.16,6.16,0,0,0-2.39-.37V85.14h13.74v2.09Z" transform="translate(-7.63 -6.96)"/><path class="cls-3" d="M188.49,119.94h-5.41v-.14l.07-4.64a15,15,0,0,1-1.56,2.37A7.43,7.43,0,0,1,180,119a5.1,5.1,0,0,1-1.69.75,8.69,8.69,0,0,1-1.92.21,15,15,0,0,1-5.19-.79,8.88,8.88,0,0,1-3.53-2.29,9.66,9.66,0,0,1-2.09-3.64,15.17,15.17,0,0,1,0-9.64,9.83,9.83,0,0,1,2.09-3.64,9.15,9.15,0,0,1,3.53-2.32,14.7,14.7,0,0,1,5.19-.81,16.22,16.22,0,0,1,5.45.81,9,9,0,0,1,5.82,6,17.36,17.36,0,0,1,.79,4.82v11.54Zm-5.34-12.38a13.79,13.79,0,0,0-.46-3.87,6.24,6.24,0,0,0-1.32-2.48,4.87,4.87,0,0,0-2.06-1.32,7.73,7.73,0,0,0-2.64-.35,8.05,8.05,0,0,0-2.64.33,4.62,4.62,0,0,0-2.06,1.3,6.23,6.23,0,0,0-1.32,2.5,14.16,14.16,0,0,0-.46,3.9v1.62a14.11,14.11,0,0,0,.46,3.89,6.25,6.25,0,0,0,1.32,2.5,4.54,4.54,0,0,0,2.06,1.3,7.9,7.9,0,0,0,2.64.32,5.28,5.28,0,0,0,4.7-2.41q1.78-2.5,1.78-7.14Z" transform="translate(-7.63 -6.96)"/><path class="cls-3" d="M196.85,109.84a15.06,15.06,0,0,0,.53,2.58,7.32,7.32,0,0,0,1.25,2.45,6.87,6.87,0,0,0,2.25,1.85,7.34,7.34,0,0,0,3.48.74,19.15,19.15,0,0,0,4.64-.79l.37,1.53c-1,.43-1.93.84-2.93,1.2a7.42,7.42,0,0,1-3.11.47,12,12,0,0,1-4.52-.83,10.9,10.9,0,0,1-3.6-2.35,11.09,11.09,0,0,1-2.43-3.59,12.54,12.54,0,0,1-1-4.59,11.37,11.37,0,0,1,.84-4.35,11.19,11.19,0,0,1,2.34-3.59,11.59,11.59,0,0,1,3.55-2.48,11.73,11.73,0,0,1,4.46-1,12.08,12.08,0,0,1,4.64,1,10.8,10.8,0,0,1,6.54,10.43c0,.15,0,.38,0,.67s0,.53,0,.72Zm-.56-21.26a2.75,2.75,0,0,1,2-.84,2.84,2.84,0,0,1,2.07.84,2.85,2.85,0,0,1,0,4.08,2.88,2.88,0,0,1-2.07.82,2.83,2.83,0,0,1-2.88-2.89,2.74,2.74,0,0,1,.84-2m4.06,11.78a5.91,5.91,0,0,0-1.76,1.62,8.17,8.17,0,0,0-1.14,2.3,13.17,13.17,0,0,0-.56,2.69h12.16q-.37-3.8-2-5.52a5.5,5.5,0,0,0-4.18-1.72h-.1a4.71,4.71,0,0,0-2.44.62M205,88.58a2.75,2.75,0,0,1,2-.84,2.91,2.91,0,0,1,2.08.84,2.68,2.68,0,0,1,.88,2,2.73,2.73,0,0,1-.86,2.07,2.93,2.93,0,0,1-2.11.82,2.74,2.74,0,0,1-2-.82,2.78,2.78,0,0,1-.83-2.07,2.72,2.72,0,0,1,.86-2" transform="translate(-7.63 -6.96)"/><path class="cls-3" d="M229.23,119.94H215.48v-2.08a6.26,6.26,0,0,0,2.39-.37,2.39,2.39,0,0,0,1.25-1.24,6.22,6.22,0,0,0,.46-2.27c0-.94.07-2.13.07-3.56V85.07H225v25.35q0,2.14.07,3.56a6.68,6.68,0,0,0,.44,2.27,2.38,2.38,0,0,0,1.11,1.24,5,5,0,0,0,2.14.37h.46Z" transform="translate(-7.63 -6.96)"/><path class="cls-3" d="M81.32,117.78l-.55-.14a6.55,6.55,0,0,1-2.35-.37A5.47,5.47,0,0,1,76.58,116a12.89,12.89,0,0,1-1.78-2.28q-.91-1.42-2.17-3.55l-.87-1.48c-.28-.47-.57-.92-.88-1.37A11.25,11.25,0,0,0,75.26,105a11.66,11.66,0,0,0,0-17q-3.44-3.11-9.57-3.12-6.46,0-10,3.11a11.37,11.37,0,0,0-3.7,8.5v13.74c0,1.43,0,2.61-.07,3.55a6.23,6.23,0,0,1-.47,2.28,2.39,2.39,0,0,1-1.25,1.23,6.19,6.19,0,0,1-2.39.37v2.09H61.59v-2.09h-.46a4.93,4.93,0,0,1-2.13-.37A2.37,2.37,0,0,1,57.87,116a6.47,6.47,0,0,1-.44-2.27c0-.94-.07-2.12-.07-3.54v-4.12a15.86,15.86,0,0,0,8.32,1.95H66l1.28,2.17q1.26,2.13,2,3.54a7.25,7.25,0,0,1,.88,2.27,1.12,1.12,0,0,1-.53,1.23,4.6,4.6,0,0,1-2.17.37v2.09H81.32Zm-21.19-14a7,7,0,0,1-1.91-2.28A8.18,8.18,0,0,1,57.37,98V95.64a9.19,9.19,0,0,1,.72-3.88A6.75,6.75,0,0,1,60,89.27a7.12,7.12,0,0,1,2.6-1.33,9.43,9.43,0,0,1,2.88-.35,10.2,10.2,0,0,1,2.91.32A6.8,6.8,0,0,1,71,89.23a6.65,6.65,0,0,1,1.89,2.51,9.39,9.39,0,0,1,.72,3.91v1.63a9.42,9.42,0,0,1-.72,3.91A6.73,6.73,0,0,1,71,103.7a6.85,6.85,0,0,1-2.62,1.3,10.46,10.46,0,0,1-2.91.33,9.92,9.92,0,0,1-2.79-.31,6.91,6.91,0,0,1-2.53-1.2" transform="translate(-7.63 -6.96)"/><path class="cls-3" d="M103.36,46.26a4.72,4.72,0,0,0-2.08.37,2.27,2.27,0,0,0-1.08,1.19A6.46,6.46,0,0,0,99.78,50q-.07,1.38-.07,3.46v21.8a13.48,13.48,0,0,1-.86,5A10,10,0,0,1,96.34,84a11.38,11.38,0,0,1-4,2.38,16.23,16.23,0,0,1-5.4.83l-.86,0c-.27,0-.53,0-.77-.07V84.27l.9.16a6.58,6.58,0,0,0,.95.07,8.92,8.92,0,0,0,2.53-.38,6.48,6.48,0,0,0,2.4-1.31,6.8,6.8,0,0,0,1.76-2.42,9,9,0,0,0,.68-3.71V53.49q0-2.08-.07-3.46A6.12,6.12,0,0,0,94,47.82a2.3,2.3,0,0,0-1.22-1.19,6,6,0,0,0-2.33-.37v-2h13.38v2Z" transform="translate(-7.63 -6.96)"/><path class="cls-3" d="M121.51,56.51A10,10,0,0,1,125,59a10.44,10.44,0,0,1,2,3.6,15.12,15.12,0,0,1,.77,4.24,16.41,16.41,0,0,1-.75,4.36,9.38,9.38,0,0,1-5.48,6,12.94,12.94,0,0,1-5.1.9,14,14,0,0,1-5.32-.9,9.78,9.78,0,0,1-3.6-2.46,10.09,10.09,0,0,1-2.08-3.59,15.51,15.51,0,0,1-.77-4.3,14.24,14.24,0,0,1,.72-4.24,9.8,9.8,0,0,1,5.71-6.1,13.55,13.55,0,0,1,5.34-1,12.18,12.18,0,0,1,5.07,1M110.32,71.39a6.1,6.1,0,0,0,1.29,2.42,4.7,4.7,0,0,0,2,1.29,7.57,7.57,0,0,0,2.58.34,7.76,7.76,0,0,0,2.59-.32,4.49,4.49,0,0,0,2-1.26,6,6,0,0,0,1.29-2.44,13.54,13.54,0,0,0,.45-3.79V66a13.56,13.56,0,0,0-.45-3.79,6,6,0,0,0-1.29-2.43,4.56,4.56,0,0,0-2-1.26,7.89,7.89,0,0,0-2.59-.32,7.5,7.5,0,0,0-2.58.34,4.69,4.69,0,0,0-2,1.29,6.08,6.08,0,0,0-1.29,2.41,13.4,13.4,0,0,0-.45,3.77v1.58a13.39,13.39,0,0,0,.45,3.77" transform="translate(-7.63 -6.96)"/><path class="cls-3" d="M139.78,75.89a5.63,5.63,0,0,0,1.65-.72A3.61,3.61,0,0,0,142.56,74a3,3,0,0,0,.41-1.59,2.42,2.42,0,0,0-.43-1.43,4.22,4.22,0,0,0-1.13-1.09,8.4,8.4,0,0,0-1.61-.84q-.91-.36-1.9-.72-1.32-.45-2.58-1A10.37,10.37,0,0,1,133,66a6.34,6.34,0,0,1-1.65-1.95,5.82,5.82,0,0,1-.63-2.83,4.85,4.85,0,0,1,.68-2.54,6.14,6.14,0,0,1,1.82-1.92,8.59,8.59,0,0,1,2.64-1.2,11.79,11.79,0,0,1,3.12-.41c.84,0,1.6,0,2.26.09a11.27,11.27,0,0,1,1.85.32,8.43,8.43,0,0,1,1.63.62c.51.26,1.07.57,1.67.94a6.48,6.48,0,0,1,.14,1.22c0,.33,0,.67,0,1s0,.7,0,1.06a7.58,7.58,0,0,0,.14,1.31h-2.21A8.22,8.22,0,0,1,144,60.3a3.87,3.87,0,0,0-.61-1.42A3.15,3.15,0,0,0,142,57.82a6.06,6.06,0,0,0-2.57-.36,7,7,0,0,0-1.7.2,5.1,5.1,0,0,0-1.47.58,3.52,3.52,0,0,0-1,.95,2.23,2.23,0,0,0-.41,1.33,2.29,2.29,0,0,0,.43,1.4A4.68,4.68,0,0,0,136.43,63a9.12,9.12,0,0,0,1.65.88l1.93.79c.85.33,1.69.69,2.54,1.06a11.2,11.2,0,0,1,2.29,1.35,6.48,6.48,0,0,1,1.66,1.9,5.3,5.3,0,0,1,.64,2.69,5.69,5.69,0,0,1-.8,3.05,6.59,6.59,0,0,1-2.07,2.1,9.38,9.38,0,0,1-2.85,1.2,13.19,13.19,0,0,1-3.12.38c-1.15,0-2.29-.1-3.43-.2s-2.38-.16-3.7-.16L130.4,72h1.94a14,14,0,0,0,.65,1.4,5.31,5.31,0,0,0,1,1.33,5.24,5.24,0,0,0,1.56,1,5.55,5.55,0,0,0,2.24.41,7.55,7.55,0,0,0,2-.25" transform="translate(-7.63 -6.96)"/><path class="cls-3" d="M154.81,68.26a14.91,14.91,0,0,0,.52,2.54,7.21,7.21,0,0,0,1.22,2.41A6.61,6.61,0,0,0,158.74,75a7.08,7.08,0,0,0,3.39.72,18.46,18.46,0,0,0,4.52-.77l.36,1.5c-.93.42-1.88.82-2.85,1.18a7.3,7.3,0,0,1-3,.45,11.51,11.51,0,0,1-4.4-.82,10.56,10.56,0,0,1-3.5-2.29,10.9,10.9,0,0,1-2.37-3.51,12.35,12.35,0,0,1-1-4.5,11.55,11.55,0,0,1,.81-4.31A11.17,11.17,0,0,1,153,59.1a11.75,11.75,0,0,1,3.46-2.5,11,11,0,0,1,4.33-1,11.27,11.27,0,0,1,4.52,1A10.78,10.78,0,0,1,168.77,59a11,11,0,0,1,2.22,3.6,10.74,10.74,0,0,1,.68,4.26c0,.15,0,.37,0,.65s0,.53,0,.7ZM158.22,59a5.71,5.71,0,0,0-1.72,1.57,8,8,0,0,0-1.11,2.23,12.51,12.51,0,0,0-.54,2.61H166.7q-.36-3.69-1.95-5.35a5.36,5.36,0,0,0-4.07-1.67h-.09a4.53,4.53,0,0,0-2.37.61" transform="translate(-7.63 -6.96)"/><path class="cls-3" d="M172.38,84.85a2.3,2.3,0,0,0,1.22-1.2,6.19,6.19,0,0,0,.46-2.21c0-.92.07-2.07.07-3.46V66.86a16.87,16.87,0,0,1,.77-4.7,9.33,9.33,0,0,1,2.06-3.55,9,9,0,0,1,3.58-2.26,15.66,15.66,0,0,1,5.31-.79,14.27,14.27,0,0,1,5.07.79,8.87,8.87,0,0,1,3.44,2.26,9.49,9.49,0,0,1,2,3.55,16.92,16.92,0,0,1,.77,4.7,17,17,0,0,1-.77,4.7,9.43,9.43,0,0,1-2,3.55,8.68,8.68,0,0,1-3.44,2.24,14.73,14.73,0,0,1-5.07.77,18.21,18.21,0,0,1-3.59-.32,12.28,12.28,0,0,1-2.87-1l0,1.13q0,2.08,0,3.46a6.6,6.6,0,0,0,.39,2.22,2.22,2.22,0,0,0,1,1.2,4.61,4.61,0,0,0,2.06.36h.45v2.05H170.06V85.21a6,6,0,0,0,2.33-.36m7.32-13.45A6,6,0,0,0,181,73.81a4.69,4.69,0,0,0,2,1.29,7.57,7.57,0,0,0,2.58.34,7.76,7.76,0,0,0,2.59-.32,4.49,4.49,0,0,0,2-1.26,6,6,0,0,0,1.29-2.44,13.43,13.43,0,0,0,.45-3.79V66a13.44,13.44,0,0,0-.45-3.79,6,6,0,0,0-1.29-2.43,4.55,4.55,0,0,0-2-1.26,7.89,7.89,0,0,0-2.59-.32,7.5,7.5,0,0,0-2.58.34,4.67,4.67,0,0,0-2,1.29,6,6,0,0,0-1.29,2.41,13.32,13.32,0,0,0-.45,3.77v1.58a13.31,13.31,0,0,0,.45,3.77" transform="translate(-7.63 -6.96)"/><path class="cls-3" d="M211.37,25.58a4.76,4.76,0,0,0-2.08.37,2.29,2.29,0,0,0-1.08,1.2,6.54,6.54,0,0,0-.43,2.22c0,.93-.07,2.08-.07,3.47V57.18a12.1,12.1,0,0,1,6.11-1.45,14.17,14.17,0,0,1,5.15.83,8.75,8.75,0,0,1,3.46,2.36,9.48,9.48,0,0,1,1.94,3.72,18.41,18.41,0,0,1,.61,4.93V69c0,1.38,0,2.53.07,3.45a6.47,6.47,0,0,0,.43,2.21,2.29,2.29,0,0,0,1.08,1.19,4.78,4.78,0,0,0,2.08.36l.46.13v1.91H215.71v-2a6,6,0,0,0,2.32-.36,2.29,2.29,0,0,0,1.22-1.19,6,6,0,0,0,.46-2.21q.06-1.37.06-3.44V66.19a16.45,16.45,0,0,0-.36-3.76A6.09,6.09,0,0,0,218.33,60a4,4,0,0,0-1.81-1.28A6.82,6.82,0,0,0,214,58.4a8,8,0,0,0-2.51.29,4.47,4.47,0,0,0-2,1.19,5.83,5.83,0,0,0-1.31,2.29,12.53,12.53,0,0,0-.52,3.56V69q0,2.07.07,3.44a6.06,6.06,0,0,0,.45,2.21,2.31,2.31,0,0,0,1.22,1.19,6,6,0,0,0,2.33.36v2H198.4v-2h.45a4.73,4.73,0,0,0,2.08-.36A2.27,2.27,0,0,0,202,74.67a6.54,6.54,0,0,0,.43-2.21q.06-1.37.06-3.45V32.8q0-2.08-.06-3.45a6.08,6.08,0,0,0-.46-2.21,2.3,2.3,0,0,0-1.22-1.19,6,6,0,0,0-2.33-.37v-2h13.38v2Z" transform="translate(-7.63 -6.96)"/><path class="cls-3" d="M52.3,52.65a10.12,10.12,0,0,1,5.38-1.6,25.63,25.63,0,0,1,4.47.36,24,24,0,0,1,4.28,1.21q-.13.6-.24,1.36T66,55.53q-.11.79-.21,1.55t-.19,1.36l-1.52,0,.06-2.68a1.62,1.62,0,0,0-.58-1.25,4.68,4.68,0,0,0-1.44-.85,9.67,9.67,0,0,0-1.86-.51q-1-.17-1.86-.24a9.72,9.72,0,0,0-1.77.28,4.74,4.74,0,0,0-1.5.67,3.4,3.4,0,0,0-1,1.09,2.71,2.71,0,0,0-.35,1.5,1.92,1.92,0,0,0,.36,1.07A5.75,5.75,0,0,0,55,58.56a7.82,7.82,0,0,0,1.37,1,14.29,14.29,0,0,0,1.64.79l4.66,2a6.74,6.74,0,0,1,1.94,1.2A7,7,0,0,1,66,65a5.88,5.88,0,0,1,.71,1.74,6.85,6.85,0,0,1,.17,1.76,5.92,5.92,0,0,1-.68,2.59,6.22,6.22,0,0,1-1.65,1.94,7.44,7.44,0,0,1-2.4,1.23,9.92,9.92,0,0,1-3,.43,19.9,19.9,0,0,1-4.28-.46q-2.1-.46-4.21-1.13.12-.6.24-1.36t.22-1.55q.11-.79.21-1.55t.16-1.36H53L53,70a1.79,1.79,0,0,0,.46,1.28,3.26,3.26,0,0,0,1.26.79,8.76,8.76,0,0,0,1.83.44q1,.14,2.16.24a8.76,8.76,0,0,0,1.78-.17A4.26,4.26,0,0,0,61.92,72a2.7,2.7,0,0,0,1-1.09,3.71,3.71,0,0,0,.32-1.77A4.57,4.57,0,0,0,63,68.09a5.43,5.43,0,0,0-.49-1.25,5,5,0,0,0-.88-1.17,3.82,3.82,0,0,0-1.4-.87l-5-1.8a8.14,8.14,0,0,1-3.74-2.48,5,5,0,0,1-1.16-3.36,5.28,5.28,0,0,1,1.91-4.5" transform="translate(-7.63 -6.96)"/><path class="cls-3" d="M78.71,60.72H75.05v7.49q0,1.45,0,2.42a4,4,0,0,0,.33,1.55,1.69,1.69,0,0,0,.87.84,4.2,4.2,0,0,0,1.63.25v1.42H68.57V73.27A4.2,4.2,0,0,0,70.19,73a1.62,1.62,0,0,0,.85-.84,4.3,4.3,0,0,0,.31-1.55q0-1,0-2.42V60.72H67.65V58.9h3.76V51h3.64V58.9h3.66Z" transform="translate(-7.63 -6.96)"/><rect class="cls-3" x="70.87" y="58.11" width="7.89" height="2.38"/><path class="cls-3" d="M9.6,97.84A10.12,10.12,0,0,1,15,96.24a25.63,25.63,0,0,1,4.47.36,24.08,24.08,0,0,1,4.28,1.21q-.13.6-.24,1.36c-.07.51-.15,1-.22,1.55s-.14,1-.2,1.55-.13,1-.19,1.36l-1.52,0,.06-2.68a1.61,1.61,0,0,0-.58-1.25,4.68,4.68,0,0,0-1.44-.85,9.58,9.58,0,0,0-1.86-.5q-1-.17-1.86-.24a9.72,9.72,0,0,0-1.77.28,4.73,4.73,0,0,0-1.5.67,3.39,3.39,0,0,0-1,1.09,2.7,2.7,0,0,0-.35,1.5,1.92,1.92,0,0,0,.36,1.08,5.75,5.75,0,0,0,.95,1.06,7.77,7.77,0,0,0,1.37,1,14.46,14.46,0,0,0,1.64.79l4.66,2a6.74,6.74,0,0,1,1.94,1.2,7,7,0,0,1,1.31,1.57A5.88,5.88,0,0,1,24,112a6.81,6.81,0,0,1,.17,1.76,5.91,5.91,0,0,1-.68,2.59,6.22,6.22,0,0,1-1.65,1.94,7.4,7.4,0,0,1-2.4,1.23,9.92,9.92,0,0,1-3,.43,19.84,19.84,0,0,1-4.28-.46Q10.08,119,8,118.33q.12-.6.24-1.36t.22-1.55q.11-.79.21-1.55t.16-1.36H10.3l0,2.68a1.79,1.79,0,0,0,.46,1.28,3.24,3.24,0,0,0,1.26.79,8.76,8.76,0,0,0,1.83.44c.68.09,1.4.17,2.16.24a8.76,8.76,0,0,0,1.78-.17,4.28,4.28,0,0,0,1.45-.57,2.7,2.7,0,0,0,1-1.09,3.69,3.69,0,0,0,.32-1.77,4.62,4.62,0,0,0-.16-1.07,5.48,5.48,0,0,0-.49-1.25,5,5,0,0,0-.88-1.17,3.81,3.81,0,0,0-1.4-.87l-5-1.8a8.14,8.14,0,0,1-3.74-2.48,5,5,0,0,1-1.16-3.36,5.28,5.28,0,0,1,1.91-4.5" transform="translate(-7.63 -6.96)"/><path class="cls-3" d="M36,105.9H32.35v7.49q0,1.45,0,2.42a4,4,0,0,0,.33,1.55,1.68,1.68,0,0,0,.87.84,4.19,4.19,0,0,0,1.63.25v1.42H25.87v-1.42a4.2,4.2,0,0,0,1.63-.25,1.61,1.61,0,0,0,.85-.84,4.25,4.25,0,0,0,.32-1.55q0-1,0-2.42V105.9H25v-1.82h3.76V96.14h3.64v7.94H36Z" transform="translate(-7.63 -6.96)"/><rect class="cls-3" x="28.17" y="103.29" width="7.89" height="2.38"/><path class="cls-4" d="M18.53,134.8c-.28-1.72-1.64-3.19-4.25-3.19-2.94,0-4.81,1.69-4.81,5.08,0,2.35,1.27,4.77,4.7,4.77A4.08,4.08,0,0,0,18.53,138h1.85c-.3,2.75-2.66,5.07-6.22,5.07-3.13,0-6.53-1.72-6.53-6.56,0-3.62,2.26-6.5,6.51-6.5,2.49,0,5.92,1.06,6.23,4.79Z" transform="translate(-7.63 -6.96)"/><path class="cls-4" d="M28.9,138.72a3.23,3.23,0,0,0,3.36,2.89A3.08,3.08,0,0,0,35.2,140H37a4.93,4.93,0,0,1-4.7,3.08c-3.55,0-5.29-2.25-5.29-4.88s1.74-4.88,5.29-4.88c2.4,0,4.95,1.39,4.95,5.17v.23Zm6.55-1.36a3,3,0,0,0-3.19-2.58,3.17,3.17,0,0,0-3.31,2.58Z" transform="translate(-7.63 -6.96)"/><path class="cls-4" d="M44.29,133.64H46V135h0a4.09,4.09,0,0,1,3.57-1.69c2.19,0,3.83.94,3.83,3.22v6.22H51.73v-5.87c0-1.34-.83-2.11-2.7-2.11a2.73,2.73,0,0,0-3,2.72v5.26H44.29Z" transform="translate(-7.63 -6.96)"/><path class="cls-4" d="M61.58,130.83h1.74v2.8h2.61V135H63.32v5.62c0,.73.52,1,1.41,1a7.08,7.08,0,0,0,1.2-.12V143a11.31,11.31,0,0,1-1.95.12c-1.71,0-2.4-.84-2.4-2.16V135H59.7v-1.36h1.88Z" transform="translate(-7.63 -6.96)"/><path class="cls-4" d="M72.48,133.64h1.74v1.67h0a3.52,3.52,0,0,1,3.14-2,3.4,3.4,0,0,1,1,.1v1.88a4.83,4.83,0,0,0-1.24-.17,2.72,2.72,0,0,0-2.93,3v4.63H72.48Z" transform="translate(-7.63 -6.96)"/><path class="cls-4" d="M86.24,138.72a3.23,3.23,0,0,0,3.36,2.89A3.08,3.08,0,0,0,92.54,140h1.85a4.93,4.93,0,0,1-4.7,3.08c-3.55,0-5.29-2.25-5.29-4.88s1.74-4.88,5.29-4.88c2.4,0,4.95,1.39,4.95,5.17v.23Zm6.55-1.36a3,3,0,0,0-3.19-2.58,3.17,3.17,0,0,0-3.31,2.58Z" transform="translate(-7.63 -6.96)"/><path class="cls-4" d="M124.93,139.89c0,.82.66,1.83,2.87,1.83s2.79-.78,2.79-1.43-.33-1-1.73-1.22l-2.87-.38a2.56,2.56,0,0,1-2.47-2.42c0-1.85,1.6-2.94,4.16-2.94,3,0,4.3,1.29,4.46,3.07H130.4c-.05-.92-.92-1.71-2.73-1.71-1.11,0-2.4.31-2.4,1.39,0,.61.28,1,1.51,1.13l2.47.33c2.3.31,3.19,1.13,3.19,2.42,0,2.12-1.79,3.12-4.58,3.12-2.09,0-4.47-.54-4.67-3.19Z" transform="translate(-7.63 -6.96)"/><path class="cls-4" d="M148.58,139.42a4.38,4.38,0,0,1-4.75,3.66c-3.62,0-5-2.46-5-4.82a4.63,4.63,0,0,1,4.95-4.93c2.44,0,4.37,1.1,4.74,3.36H146.7c-.21-1.18-1.15-1.9-2.77-1.9-2.23,0-3.22,1.46-3.22,3.41s1,3.41,3.22,3.41a2.56,2.56,0,0,0,2.8-2.19Z" transform="translate(-7.63 -6.96)"/><path class="cls-4" d="M160.35,133.32c3.55,0,5.29,2.25,5.29,4.88s-1.74,4.88-5.29,4.88-5.29-2.25-5.29-4.88,1.74-4.88,5.29-4.88m0,1.46a3.41,3.41,0,1,0,3.45,3.41,3.19,3.19,0,0,0-3.45-3.41" transform="translate(-7.63 -6.96)"/><rect class="cls-4" x="164.96" y="123.26" width="1.74" height="12.54"/><path class="cls-4" d="M181.67,136.49c.23-2.28,1.79-3.17,4.53-3.17,1.86,0,4.2.47,4.2,2.6v4.91c0,.54.24.78.78.78a3.43,3.43,0,0,0,.61-.07v1.22a8.89,8.89,0,0,1-1.36.11c-.87,0-1.45-.24-1.57-1.27a5.16,5.16,0,0,1-3.88,1.48c-3,0-3.71-1.57-3.71-2.75,0-1.67,1-2.52,3.92-2.84l2-.21c1-.1,1.59-.28,1.59-1.1,0-1.25-1.22-1.5-2.63-1.5s-2.77.4-2.82,1.81Zm7.09,1.5c-.26.3-.73.42-1.71.54l-2,.24c-1.36.17-2.07.54-2.07,1.5s.85,1.45,2.12,1.45c2,0,3.62-1,3.62-2.56Z" transform="translate(-7.63 -6.96)"/><path class="cls-4" d="M198.19,130.22h1.74v1.92h-1.74Zm0,3.41h1.74v9.13h-1.74Z" transform="translate(-7.63 -6.96)"/><path class="cls-4" d="M207.28,133.64H209v1.67h0a3.52,3.52,0,0,1,3.13-2,3.41,3.41,0,0,1,1,.1v1.88a4.83,4.83,0,0,0-1.24-.17,2.72,2.72,0,0,0-2.93,3v4.63h-1.74Z" transform="translate(-7.63 -6.96)"/><path class="cls-4" d="M221,138.72a3.23,3.23,0,0,0,3.36,2.89,3.08,3.08,0,0,0,2.94-1.62h1.85a4.93,4.93,0,0,1-4.7,3.08c-3.55,0-5.29-2.25-5.29-4.88s1.74-4.88,5.29-4.88c2.4,0,4.95,1.39,4.95,5.17v.23Zm6.55-1.36a3,3,0,0,0-3.19-2.58,3.17,3.17,0,0,0-3.31,2.58Z" transform="translate(-7.63 -6.96)"/><path class="cls-4" d="M302.17,64.67a1.53,1.53,0,1,1-1.53-1.53,1.53,1.53,0,0,1,1.53,1.53m2.55-1.53a1.53,1.53,0,1,0,1.53,1.53,1.53,1.53,0,0,0-1.53-1.53m-5.86,3.31A1.53,1.53,0,1,0,300.39,68a1.53,1.53,0,0,0-1.53-1.53m4.08,0A1.53,1.53,0,1,0,304.46,68a1.53,1.53,0,0,0-1.52-1.53m-51.21,3.31a1.53,1.53,0,1,0,1.53,1.53,1.53,1.53,0,0,0-1.53-1.53m4.08,0a1.53,1.53,0,1,0,1.53,1.53,1.53,1.53,0,0,0-1.53-1.53m24.46,0a1.53,1.53,0,1,0,1.53,1.53,1.53,1.53,0,0,0-1.53-1.53m4.08,0a1.53,1.53,0,1,0,1.53,1.53,1.53,1.53,0,0,0-1.53-1.53m4.07,0a1.53,1.53,0,1,0,1.53,1.53,1.53,1.53,0,0,0-1.53-1.53m4.08,0A1.53,1.53,0,1,0,294,71.29a1.53,1.53,0,0,0-1.53-1.53m8.15,0a1.53,1.53,0,1,0,1.53,1.53,1.53,1.53,0,0,0-1.53-1.53M254,73.07a1.53,1.53,0,1,0,1.53,1.53A1.53,1.53,0,0,0,254,73.07m4.08,0a1.53,1.53,0,1,0,1.53,1.53,1.53,1.53,0,0,0-1.53-1.53m4.08,0a1.53,1.53,0,1,0,1.53,1.53,1.53,1.53,0,0,0-1.53-1.53m4.08,0a1.53,1.53,0,1,0,1.53,1.53,1.53,1.53,0,0,0-1.53-1.53m4.08,0a1.53,1.53,0,1,0,1.53,1.53,1.53,1.53,0,0,0-1.53-1.53m8.15,0A1.53,1.53,0,1,0,280,74.6a1.53,1.53,0,0,0-1.53-1.53m4.07,0a1.53,1.53,0,1,0,1.53,1.53,1.53,1.53,0,0,0-1.53-1.53m4.08,0a1.53,1.53,0,1,0,1.53,1.53,1.53,1.53,0,0,0-1.53-1.53m4.08,0a1.53,1.53,0,1,0,1.53,1.53,1.53,1.53,0,0,0-1.53-1.53m4.08,0a1.53,1.53,0,1,0,1.53,1.53,1.53,1.53,0,0,0-1.53-1.53m4.07,0a1.53,1.53,0,1,0,1.53,1.53,1.53,1.53,0,0,0-1.53-1.53M255.8,76.39a1.53,1.53,0,1,0,1.53,1.53,1.53,1.53,0,0,0-1.53-1.53m4.08,0a1.53,1.53,0,1,0,1.53,1.53,1.53,1.53,0,0,0-1.53-1.53m4.08,0a1.53,1.53,0,1,0,1.53,1.53A1.53,1.53,0,0,0,264,76.39m4.08,0a1.53,1.53,0,1,0,1.53,1.53A1.53,1.53,0,0,0,268,76.39m8.15,0a1.53,1.53,0,1,0,1.53,1.53,1.53,1.53,0,0,0-1.53-1.53m4.08,0a1.53,1.53,0,1,0,1.53,1.53,1.53,1.53,0,0,0-1.53-1.53m4.08,0a1.53,1.53,0,1,0,1.53,1.53,1.53,1.53,0,0,0-1.53-1.53m4.07,0a1.53,1.53,0,1,0,1.53,1.53,1.53,1.53,0,0,0-1.53-1.53m4.08,0A1.53,1.53,0,1,0,294,77.91a1.53,1.53,0,0,0-1.53-1.53m-30.31,3.31a1.53,1.53,0,1,0,1.53,1.53,1.53,1.53,0,0,0-1.53-1.53m16.31,0A1.53,1.53,0,1,0,280,81.22a1.53,1.53,0,0,0-1.53-1.53m18.08,9.94a1.53,1.53,0,1,0,1.53,1.53,1.53,1.53,0,0,0-1.53-1.53m-1.78,3.31a1.53,1.53,0,1,0,1.53,1.53,1.52,1.52,0,0,0-1.53-1.53m-14.52,3.31a1.53,1.53,0,1,0,1.53,1.53,1.53,1.53,0,0,0-1.53-1.53m8.15,0a1.53,1.53,0,1,0,1.53,1.53,1.53,1.53,0,0,0-1.53-1.53m4.08,0A1.53,1.53,0,1,0,294,97.78a1.53,1.53,0,0,0-1.53-1.53m4.08,0a1.53,1.53,0,1,0,1.53,1.53,1.53,1.53,0,0,0-1.53-1.53m-30.32,3.31a1.53,1.53,0,1,0,1.53,1.53,1.53,1.53,0,0,0-1.53-1.53m4.08,0a1.53,1.53,0,1,0,1.53,1.53,1.52,1.52,0,0,0-1.53-1.53m16.3,0a1.53,1.53,0,1,0,1.53,1.53,1.53,1.53,0,0,0-1.53-1.53m4.08,0a1.53,1.53,0,1,0,1.53,1.53,1.53,1.53,0,0,0-1.53-1.53m4.08,0a1.53,1.53,0,1,0,1.53,1.53,1.52,1.52,0,0,0-1.53-1.53m-22.68,3.31a1.53,1.53,0,1,0,1.53,1.53,1.53,1.53,0,0,0-1.53-1.53m4.08,0a1.53,1.53,0,1,0,1.53,1.53,1.53,1.53,0,0,0-1.53-1.53m4.08,0a1.53,1.53,0,1,0,1.53,1.53,1.53,1.53,0,0,0-1.53-1.53m8.15,0a1.53,1.53,0,1,0,1.53,1.53,1.53,1.53,0,0,0-1.53-1.53m4.08,0a1.53,1.53,0,1,0,1.53,1.53,1.53,1.53,0,0,0-1.53-1.53m-18.08,3.31a1.53,1.53,0,1,0,1.53,1.53,1.53,1.53,0,0,0-1.53-1.53m4.08,0a1.53,1.53,0,1,0,1.53,1.53,1.53,1.53,0,0,0-1.53-1.53m4.07,0a1.53,1.53,0,1,0,1.53,1.53,1.53,1.53,0,0,0-1.53-1.53m4.08,0a1.53,1.53,0,1,0,1.53,1.53,1.53,1.53,0,0,0-1.53-1.53m4.08,0a1.53,1.53,0,1,0,1.53,1.53,1.53,1.53,0,0,0-1.53-1.53M264,109.5a1.53,1.53,0,1,0,1.53,1.53A1.53,1.53,0,0,0,264,109.5m4.08,0a1.53,1.53,0,1,0,1.53,1.53A1.53,1.53,0,0,0,268,109.5m4.07,0a1.53,1.53,0,1,0,1.53,1.53,1.53,1.53,0,0,0-1.53-1.53m4.08,0a1.53,1.53,0,1,0,1.53,1.53,1.52,1.52,0,0,0-1.53-1.53m4.08,0a1.53,1.53,0,1,0,1.53,1.53,1.53,1.53,0,0,0-1.53-1.53m4.08,0a1.53,1.53,0,1,0,1.53,1.53,1.53,1.53,0,0,0-1.53-1.53m4.07,0a1.53,1.53,0,1,0,1.53,1.53,1.53,1.53,0,0,0-1.53-1.53m-14,3.31a1.53,1.53,0,1,0,1.53,1.53,1.53,1.53,0,0,0-1.53-1.53m4.08,0a1.53,1.53,0,1,0,1.53,1.53,1.53,1.53,0,0,0-1.53-1.53m8.15,0a1.53,1.53,0,1,0,1.53,1.53,1.53,1.53,0,0,0-1.53-1.53m-14.52,3.31a1.53,1.53,0,1,0,1.53,1.53,1.53,1.53,0,0,0-1.53-1.53m4.08,0a1.53,1.53,0,1,0,1.53,1.53,1.53,1.53,0,0,0-1.53-1.53m12.23,0a1.53,1.53,0,1,0,1.53,1.53,1.53,1.53,0,0,0-1.53-1.53m-1.78,3.31a1.53,1.53,0,1,0,1.53,1.53,1.53,1.53,0,0,0-1.53-1.53m4.08,0a1.53,1.53,0,1,0,1.53,1.53,1.53,1.53,0,0,0-1.53-1.53m-6.37,3.32a1.53,1.53,0,1,0,1.53,1.53,1.53,1.53,0,0,0-1.53-1.53m4.07,0a1.53,1.53,0,1,0,1.53,1.53,1.53,1.53,0,0,0-1.53-1.53m4.08,0a1.53,1.53,0,1,0,1.53,1.53,1.53,1.53,0,0,0-1.53-1.53m4.08,0a1.53,1.53,0,1,0,1.53,1.53,1.53,1.53,0,0,0-1.53-1.53m-50.69,3.31a1.53,1.53,0,1,0,1.53,1.53,1.53,1.53,0,0,0-1.53-1.53m4.08,0a1.53,1.53,0,1,0,1.53,1.53,1.53,1.53,0,0,0-1.53-1.53m4.07,0a1.53,1.53,0,1,0,1.53,1.53,1.53,1.53,0,0,0-1.53-1.53m28.53,0a1.53,1.53,0,1,0,1.53,1.53,1.53,1.53,0,0,0-1.53-1.53m4.08,0a1.53,1.53,0,1,0,1.53,1.53,1.53,1.53,0,0,0-1.53-1.53m4.08,0a1.53,1.53,0,1,0,1.53,1.53,1.53,1.53,0,0,0-1.53-1.53m4.08,0a1.53,1.53,0,1,0,1.53,1.53,1.53,1.53,0,0,0-1.53-1.53m-43.06,3.31a1.53,1.53,0,1,0,1.53,1.53,1.53,1.53,0,0,0-1.53-1.53m4.08,0a1.53,1.53,0,1,0,1.53,1.53,1.53,1.53,0,0,0-1.53-1.53m4.08,0a1.53,1.53,0,1,0,1.53,1.53,1.53,1.53,0,0,0-1.53-1.53m4.08,0a1.53,1.53,0,1,0,1.53,1.53,1.53,1.53,0,0,0-1.53-1.53m4.08,0a1.53,1.53,0,1,0,1.53,1.53,1.53,1.53,0,0,0-1.53-1.53m4.07,0a1.53,1.53,0,1,0,1.53,1.53,1.53,1.53,0,0,0-1.53-1.53m4.08,0a1.53,1.53,0,1,0,1.53,1.53,1.52,1.52,0,0,0-1.53-1.53m4.08,0a1.53,1.53,0,1,0,1.53,1.53,1.53,1.53,0,0,0-1.53-1.53m4.08,0a1.53,1.53,0,1,0,1.53,1.53,1.53,1.53,0,0,0-1.53-1.53m4.07,0a1.53,1.53,0,1,0,1.53,1.53,1.53,1.53,0,0,0-1.53-1.53m-42.54,3.31a1.53,1.53,0,1,0,1.53,1.53,1.53,1.53,0,0,0-1.53-1.53m4.08,0a1.53,1.53,0,1,0,1.53,1.53,1.53,1.53,0,0,0-1.53-1.53m4.07,0a1.53,1.53,0,1,0,1.53,1.53,1.53,1.53,0,0,0-1.53-1.53m4.08,0a1.53,1.53,0,1,0,1.53,1.53,1.53,1.53,0,0,0-1.53-1.53m4.08,0a1.53,1.53,0,1,0,1.53,1.53,1.53,1.53,0,0,0-1.53-1.53m4.08,0a1.53,1.53,0,1,0,1.53,1.53,1.53,1.53,0,0,0-1.53-1.53m4.08,0a1.53,1.53,0,1,0,1.53,1.53,1.53,1.53,0,0,0-1.53-1.53m4.08,0a1.53,1.53,0,1,0,1.53,1.53,1.53,1.53,0,0,0-1.53-1.53m4.08,0a1.53,1.53,0,1,0,1.53,1.53,1.53,1.53,0,0,0-1.53-1.53m4.07,0a1.53,1.53,0,1,0,1.53,1.53,1.53,1.53,0,0,0-1.53-1.53m4.08,0a1.53,1.53,0,1,0,1.53,1.53,1.53,1.53,0,0,0-1.53-1.53M251.73,136a1.53,1.53,0,1,0,1.53,1.53,1.53,1.53,0,0,0-1.53-1.53m4.08,0a1.53,1.53,0,1,0,1.53,1.53A1.53,1.53,0,0,0,255.8,136m4.08,0a1.53,1.53,0,1,0,1.53,1.53,1.53,1.53,0,0,0-1.53-1.53m4.08,0a1.53,1.53,0,1,0,1.53,1.53A1.53,1.53,0,0,0,264,136m4.08,0a1.53,1.53,0,1,0,1.53,1.53A1.53,1.53,0,0,0,268,136m4.07,0a1.53,1.53,0,1,0,1.53,1.53,1.53,1.53,0,0,0-1.53-1.53m4.08,0a1.53,1.53,0,1,0,1.53,1.53,1.53,1.53,0,0,0-1.53-1.53m4.08,0a1.53,1.53,0,1,0,1.53,1.53,1.53,1.53,0,0,0-1.53-1.53m4.08,0a1.53,1.53,0,1,0,1.53,1.53,1.53,1.53,0,0,0-1.53-1.53m-38.47,3.31a1.53,1.53,0,1,0,1.53,1.53,1.53,1.53,0,0,0-1.53-1.53m4.08,0a1.53,1.53,0,1,0,1.53,1.53,1.53,1.53,0,0,0-1.53-1.53m4.07,0a1.53,1.53,0,1,0,1.53,1.53,1.53,1.53,0,0,0-1.53-1.53m4.08,0a1.53,1.53,0,1,0,1.53,1.53,1.53,1.53,0,0,0-1.53-1.53m4.08,0a1.53,1.53,0,1,0,1.53,1.53,1.53,1.53,0,0,0-1.53-1.53m4.08,0a1.53,1.53,0,1,0,1.53,1.53,1.53,1.53,0,0,0-1.53-1.53m4.08,0a1.53,1.53,0,1,0,1.53,1.53,1.53,1.53,0,0,0-1.53-1.53m4.08,0a1.53,1.53,0,1,0,1.53,1.53,1.53,1.53,0,0,0-1.53-1.53m4.08,0a1.53,1.53,0,1,0,1.53,1.53,1.53,1.53,0,0,0-1.53-1.53m4.07,0a1.53,1.53,0,1,0,1.53,1.53,1.53,1.53,0,0,0-1.53-1.53m-30.82,3.31a1.53,1.53,0,1,0,1.53,1.53,1.53,1.53,0,0,0-1.53-1.53m4.08,0a1.53,1.53,0,1,0,1.53,1.53,1.53,1.53,0,0,0-1.53-1.53m4.08,0a1.53,1.53,0,1,0,1.53,1.53,1.53,1.53,0,0,0-1.53-1.53m4.08,0a1.53,1.53,0,1,0,1.53,1.53,1.53,1.53,0,0,0-1.53-1.53m4.08,0a1.53,1.53,0,1,0,1.53,1.53,1.53,1.53,0,0,0-1.53-1.53m4.07,0a1.53,1.53,0,1,0,1.53,1.53,1.53,1.53,0,0,0-1.53-1.53m4.08,0a1.53,1.53,0,1,0,1.53,1.53,1.53,1.53,0,0,0-1.53-1.53m4.08,0a1.53,1.53,0,1,0,1.53,1.53,1.53,1.53,0,0,0-1.53-1.53m-34.39,3.31a1.53,1.53,0,1,0,1.53,1.53,1.53,1.53,0,0,0-1.53-1.53m4.08,0a1.53,1.53,0,1,0,1.53,1.53,1.53,1.53,0,0,0-1.53-1.53m4.07,0a1.53,1.53,0,1,0,1.53,1.53,1.53,1.53,0,0,0-1.53-1.53m4.08,0a1.53,1.53,0,1,0,1.53,1.53,1.53,1.53,0,0,0-1.53-1.53m4.08,0a1.53,1.53,0,1,0,1.53,1.53,1.53,1.53,0,0,0-1.53-1.53m4.08,0a1.53,1.53,0,1,0,1.53,1.53,1.53,1.53,0,0,0-1.53-1.53m4.08,0a1.53,1.53,0,1,0,1.53,1.53,1.53,1.53,0,0,0-1.53-1.53m4.08,0a1.53,1.53,0,1,0,1.53,1.53,1.53,1.53,0,0,0-1.53-1.53m4.08,0a1.53,1.53,0,1,0,1.53,1.53,1.53,1.53,0,0,0-1.53-1.53m4.07,0a1.53,1.53,0,1,0,1.53,1.53,1.53,1.53,0,0,0-1.53-1.53m-30.82,3.31a1.53,1.53,0,1,0,1.53,1.53,1.53,1.53,0,0,0-1.53-1.53m4.08,0a1.53,1.53,0,1,0,1.53,1.53,1.53,1.53,0,0,0-1.53-1.53m4.08,0a1.53,1.53,0,1,0,1.53,1.53,1.53,1.53,0,0,0-1.53-1.53m4.08,0a1.53,1.53,0,1,0,1.53,1.53,1.53,1.53,0,0,0-1.53-1.53m4.08,0a1.53,1.53,0,1,0,1.53,1.53,1.53,1.53,0,0,0-1.53-1.53m4.07,0a1.53,1.53,0,1,0,1.53,1.53,1.53,1.53,0,0,0-1.53-1.53m4.08,0a1.53,1.53,0,1,0,1.53,1.53,1.53,1.53,0,0,0-1.53-1.53m4.08,0a1.53,1.53,0,1,0,1.53,1.53,1.53,1.53,0,0,0-1.53-1.53m-30.31,3.31a1.53,1.53,0,1,0,1.53,1.53,1.53,1.53,0,0,0-1.53-1.53m4.07,0a1.53,1.53,0,1,0,1.53,1.53,1.53,1.53,0,0,0-1.53-1.53m4.08,0a1.53,1.53,0,1,0,1.53,1.53,1.53,1.53,0,0,0-1.53-1.53m4.08,0a1.53,1.53,0,1,0,1.53,1.53,1.53,1.53,0,0,0-1.53-1.53m-18.82-30a1.53,1.53,0,1,0,1.53,1.53,1.53,1.53,0,0,0-1.53-1.53m-4.07,6.63a1.53,1.53,0,1,0,1.53,1.53,1.53,1.53,0,0,0-1.53-1.53m-1.78,3.31A1.53,1.53,0,1,0,239,134a1.53,1.53,0,0,0-1.53-1.53m4.07,0A1.53,1.53,0,1,0,243.1,134a1.53,1.53,0,0,0-1.53-1.53m-2.29,3.31a1.53,1.53,0,1,0,1.53,1.53,1.53,1.53,0,0,0-1.53-1.53m4.07,0a1.53,1.53,0,1,0,1.53,1.53,1.53,1.53,0,0,0-1.53-1.53m4.08,0a1.53,1.53,0,1,0,1.53,1.53,1.53,1.53,0,0,0-1.53-1.53m-5.86,3.31a1.53,1.53,0,1,0,1.53,1.53,1.52,1.52,0,0,0-1.53-1.53m1.78,3.31a1.53,1.53,0,1,0,1.53,1.53,1.53,1.53,0,0,0-1.53-1.53m4.08,0a1.53,1.53,0,1,0,1.53,1.53,1.53,1.53,0,0,0-1.53-1.53m0,6.62a1.53,1.53,0,1,0,1.53,1.53,1.53,1.53,0,0,0-1.53-1.53m4.46,6.81a1.53,1.53,0,1,0,1.53,1.53,1.53,1.53,0,0,0-1.53-1.53m4.08,0a1.53,1.53,0,1,0,1.53,1.53,1.53,1.53,0,0,0-1.53-1.53M246.3,7a1.53,1.53,0,1,0,1.53,1.53A1.53,1.53,0,0,0,246.3,7m4.08,0a1.53,1.53,0,1,0,1.53,1.53A1.53,1.53,0,0,0,250.37,7m4.07,0A1.53,1.53,0,1,0,256,8.49,1.53,1.53,0,0,0,254.45,7m4.08,0a1.53,1.53,0,1,0,1.53,1.53A1.53,1.53,0,0,0,258.52,7m4.08,0a1.53,1.53,0,1,0,1.53,1.53A1.53,1.53,0,0,0,262.6,7m4.08,0a1.53,1.53,0,1,0,1.53,1.53A1.53,1.53,0,0,0,266.68,7m4.08,0a1.53,1.53,0,1,0,1.53,1.53A1.53,1.53,0,0,0,270.75,7m4.08,0a1.53,1.53,0,1,0,1.53,1.53A1.53,1.53,0,0,0,274.83,7m-26.75,3.31a1.53,1.53,0,1,0,1.53,1.53,1.53,1.53,0,0,0-1.53-1.53m4.08,0a1.53,1.53,0,1,0,1.53,1.53,1.53,1.53,0,0,0-1.53-1.53m4.07,0a1.53,1.53,0,1,0,1.53,1.53,1.53,1.53,0,0,0-1.53-1.53m4.08,0a1.53,1.53,0,1,0,1.53,1.53,1.53,1.53,0,0,0-1.53-1.53m4.08,0a1.53,1.53,0,1,0,1.53,1.53,1.53,1.53,0,0,0-1.53-1.53m4.08,0A1.53,1.53,0,1,0,270,11.8a1.53,1.53,0,0,0-1.53-1.53m4.08,0a1.53,1.53,0,1,0,1.53,1.53,1.53,1.53,0,0,0-1.53-1.53m4.08,0a1.53,1.53,0,1,0,1.53,1.53,1.53,1.53,0,0,0-1.53-1.53m4.08,0a1.53,1.53,0,1,0,1.53,1.53,1.53,1.53,0,0,0-1.53-1.53m-38.47,3.31a1.53,1.53,0,1,0,1.53,1.53,1.53,1.53,0,0,0-1.53-1.53m4.08,0a1.53,1.53,0,1,0,1.53,1.53,1.53,1.53,0,0,0-1.53-1.53m4.08,0a1.53,1.53,0,1,0,1.53,1.53,1.53,1.53,0,0,0-1.53-1.53m4.07,0A1.53,1.53,0,1,0,256,15.11a1.53,1.53,0,0,0-1.53-1.53m4.08,0a1.53,1.53,0,1,0,1.53,1.53,1.53,1.53,0,0,0-1.53-1.53m4.08,0a1.53,1.53,0,1,0,1.53,1.53,1.53,1.53,0,0,0-1.53-1.53m4.08,0a1.53,1.53,0,1,0,1.53,1.53,1.53,1.53,0,0,0-1.53-1.53m4.08,0a1.53,1.53,0,1,0,1.53,1.53,1.53,1.53,0,0,0-1.53-1.53m4.08,0a1.53,1.53,0,1,0,1.53,1.53,1.53,1.53,0,0,0-1.53-1.53m4.07,0a1.53,1.53,0,1,0,1.53,1.53,1.53,1.53,0,0,0-1.53-1.53m4.08,0a1.53,1.53,0,1,0,1.53,1.53A1.53,1.53,0,0,0,283,13.58m4.08,0a1.53,1.53,0,1,0,1.53,1.53,1.53,1.53,0,0,0-1.53-1.53m-39,3.31a1.53,1.53,0,1,0,1.53,1.53,1.53,1.53,0,0,0-1.53-1.53m4.08,0a1.53,1.53,0,1,0,1.53,1.53,1.53,1.53,0,0,0-1.53-1.53m4.07,0a1.53,1.53,0,1,0,1.53,1.53,1.53,1.53,0,0,0-1.53-1.53m4.08,0a1.53,1.53,0,1,0,1.53,1.53,1.53,1.53,0,0,0-1.53-1.53m4.08,0a1.53,1.53,0,1,0,1.53,1.53,1.53,1.53,0,0,0-1.53-1.53m4.08,0A1.53,1.53,0,1,0,270,18.42a1.53,1.53,0,0,0-1.53-1.53m4.08,0a1.53,1.53,0,1,0,1.53,1.53,1.53,1.53,0,0,0-1.53-1.53m4.08,0a1.53,1.53,0,1,0,1.53,1.53,1.53,1.53,0,0,0-1.53-1.53m4.08,0a1.53,1.53,0,1,0,1.53,1.53,1.53,1.53,0,0,0-1.53-1.53m4.08,0a1.53,1.53,0,1,0,1.53,1.53,1.53,1.53,0,0,0-1.53-1.53m4.08,0a1.53,1.53,0,1,0,1.53,1.53,1.53,1.53,0,0,0-1.53-1.53m-46.62,3.31a1.53,1.53,0,1,0,1.53,1.53,1.53,1.53,0,0,0-1.53-1.53m4.08,0a1.53,1.53,0,1,0,1.53,1.53,1.53,1.53,0,0,0-1.53-1.53m4.08,0a1.53,1.53,0,1,0,1.53,1.53,1.53,1.53,0,0,0-1.53-1.53m4.07,0A1.53,1.53,0,1,0,256,21.73a1.53,1.53,0,0,0-1.53-1.53m4.08,0a1.53,1.53,0,1,0,1.53,1.53,1.53,1.53,0,0,0-1.53-1.53m4.08,0a1.53,1.53,0,1,0,1.53,1.53,1.53,1.53,0,0,0-1.53-1.53m4.08,0a1.53,1.53,0,1,0,1.53,1.53,1.53,1.53,0,0,0-1.53-1.53m4.08,0a1.53,1.53,0,1,0,1.53,1.53,1.53,1.53,0,0,0-1.53-1.53m4.08,0a1.53,1.53,0,1,0,1.53,1.53,1.53,1.53,0,0,0-1.53-1.53m4.07,0a1.53,1.53,0,1,0,1.53,1.53,1.53,1.53,0,0,0-1.53-1.53m4.08,0a1.53,1.53,0,1,0,1.53,1.53A1.53,1.53,0,0,0,283,20.21m4.08,0a1.53,1.53,0,1,0,1.53,1.53,1.53,1.53,0,0,0-1.53-1.53m4.08,0a1.53,1.53,0,1,0,1.53,1.53,1.53,1.53,0,0,0-1.53-1.53m4.08,0a1.53,1.53,0,1,0,1.53,1.53,1.53,1.53,0,0,0-1.53-1.53m-47.13,3.31A1.53,1.53,0,1,0,249.61,25a1.53,1.53,0,0,0-1.53-1.53m4.08,0A1.53,1.53,0,1,0,253.68,25a1.53,1.53,0,0,0-1.53-1.53m4.07,0A1.53,1.53,0,1,0,257.76,25a1.53,1.53,0,0,0-1.53-1.53m4.08,0A1.53,1.53,0,1,0,261.84,25a1.53,1.53,0,0,0-1.53-1.53m4.08,0A1.53,1.53,0,1,0,265.91,25a1.53,1.53,0,0,0-1.53-1.53m4.08,0A1.53,1.53,0,1,0,270,25a1.53,1.53,0,0,0-1.53-1.53m4.08,0A1.53,1.53,0,1,0,274.06,25a1.53,1.53,0,0,0-1.53-1.53m4.08,0A1.53,1.53,0,1,0,278.14,25a1.53,1.53,0,0,0-1.53-1.53m4.08,0A1.53,1.53,0,1,0,282.22,25a1.53,1.53,0,0,0-1.53-1.53m4.08,0A1.53,1.53,0,1,0,286.29,25a1.53,1.53,0,0,0-1.53-1.53m4.08,0A1.53,1.53,0,1,0,290.37,25a1.53,1.53,0,0,0-1.53-1.53m4.08,0A1.53,1.53,0,1,0,294.44,25a1.53,1.53,0,0,0-1.53-1.53m4.08,0A1.53,1.53,0,1,0,298.52,25,1.53,1.53,0,0,0,297,23.52m-54.77,3.31a1.53,1.53,0,1,0,1.53,1.53,1.53,1.53,0,0,0-1.53-1.53m4.08,0a1.53,1.53,0,1,0,1.53,1.53,1.53,1.53,0,0,0-1.53-1.53m4.08,0a1.53,1.53,0,1,0,1.53,1.53,1.53,1.53,0,0,0-1.53-1.53m4.07,0A1.53,1.53,0,1,0,256,28.36a1.53,1.53,0,0,0-1.53-1.53m4.08,0a1.53,1.53,0,1,0,1.53,1.53,1.53,1.53,0,0,0-1.53-1.53m4.08,0a1.53,1.53,0,1,0,1.53,1.53,1.53,1.53,0,0,0-1.53-1.53m4.08,0a1.53,1.53,0,1,0,1.53,1.53,1.53,1.53,0,0,0-1.53-1.53m4.08,0a1.53,1.53,0,1,0,1.53,1.53,1.52,1.52,0,0,0-1.53-1.53m4.08,0a1.53,1.53,0,1,0,1.53,1.53,1.53,1.53,0,0,0-1.53-1.53m4.07,0a1.53,1.53,0,1,0,1.53,1.53,1.53,1.53,0,0,0-1.53-1.53m4.08,0a1.53,1.53,0,1,0,1.53,1.53A1.53,1.53,0,0,0,283,26.83m4.08,0a1.53,1.53,0,1,0,1.53,1.53,1.53,1.53,0,0,0-1.53-1.53m4.08,0a1.53,1.53,0,1,0,1.53,1.53,1.53,1.53,0,0,0-1.53-1.53m4.08,0a1.53,1.53,0,1,0,1.53,1.53,1.53,1.53,0,0,0-1.53-1.53m4.08,0a1.53,1.53,0,1,0,1.53,1.53,1.53,1.53,0,0,0-1.53-1.53m-51.21,3.31a1.53,1.53,0,1,0,1.53,1.53,1.53,1.53,0,0,0-1.53-1.53m4.08,0a1.53,1.53,0,1,0,1.53,1.53,1.53,1.53,0,0,0-1.53-1.53m4.07,0a1.53,1.53,0,1,0,1.53,1.53,1.53,1.53,0,0,0-1.53-1.53m4.08,0a1.53,1.53,0,1,0,1.53,1.53,1.53,1.53,0,0,0-1.53-1.53m4.08,0a1.53,1.53,0,1,0,1.53,1.53,1.53,1.53,0,0,0-1.53-1.53m4.08,0A1.53,1.53,0,1,0,270,31.67a1.53,1.53,0,0,0-1.53-1.53m4.08,0a1.53,1.53,0,1,0,1.53,1.53,1.52,1.52,0,0,0-1.53-1.53m4.08,0a1.53,1.53,0,1,0,1.53,1.53,1.53,1.53,0,0,0-1.53-1.53m4.08,0a1.53,1.53,0,1,0,1.53,1.53,1.53,1.53,0,0,0-1.53-1.53m4.08,0a1.53,1.53,0,1,0,1.53,1.53,1.53,1.53,0,0,0-1.53-1.53m4.08,0a1.53,1.53,0,1,0,1.53,1.53,1.53,1.53,0,0,0-1.53-1.53m4.08,0a1.53,1.53,0,1,0,1.53,1.53,1.53,1.53,0,0,0-1.53-1.53m4.08,0a1.53,1.53,0,1,0,1.53,1.53A1.53,1.53,0,0,0,297,30.14m4.08,0a1.53,1.53,0,1,0,1.53,1.53,1.53,1.53,0,0,0-1.53-1.53m-58.85,3.31A1.53,1.53,0,1,0,243.75,35a1.53,1.53,0,0,0-1.53-1.53m4.08,0A1.53,1.53,0,1,0,247.83,35a1.53,1.53,0,0,0-1.53-1.53m4.08,0A1.53,1.53,0,1,0,251.9,35a1.53,1.53,0,0,0-1.53-1.53m4.07,0A1.53,1.53,0,1,0,256,35a1.53,1.53,0,0,0-1.53-1.53m4.08,0A1.53,1.53,0,1,0,260.05,35a1.53,1.53,0,0,0-1.53-1.53m4.08,0A1.53,1.53,0,1,0,264.13,35a1.53,1.53,0,0,0-1.53-1.53m4.08,0A1.53,1.53,0,1,0,268.2,35a1.53,1.53,0,0,0-1.53-1.53m4.08,0A1.53,1.53,0,1,0,272.28,35a1.53,1.53,0,0,0-1.53-1.53m4.08,0A1.53,1.53,0,1,0,276.36,35a1.53,1.53,0,0,0-1.53-1.53m4.07,0A1.53,1.53,0,1,0,280.43,35a1.53,1.53,0,0,0-1.53-1.53m4.08,0A1.53,1.53,0,1,0,284.51,35,1.53,1.53,0,0,0,283,33.45m4.08,0A1.53,1.53,0,1,0,288.59,35a1.53,1.53,0,0,0-1.53-1.53m4.08,0A1.53,1.53,0,1,0,292.66,35a1.53,1.53,0,0,0-1.53-1.53m4.08,0A1.53,1.53,0,1,0,296.74,35a1.53,1.53,0,0,0-1.53-1.53m4.08,0A1.53,1.53,0,1,0,300.81,35a1.53,1.53,0,0,0-1.53-1.53m4.07,0A1.53,1.53,0,1,0,304.89,35a1.53,1.53,0,0,0-1.53-1.53m-51.2,3.31a1.53,1.53,0,1,0,1.53,1.53,1.53,1.53,0,0,0-1.53-1.53m4.07,0a1.53,1.53,0,1,0,1.53,1.53,1.53,1.53,0,0,0-1.53-1.53m4.08,0a1.53,1.53,0,1,0,1.53,1.53,1.53,1.53,0,0,0-1.53-1.53m4.08,0a1.53,1.53,0,1,0,1.53,1.53,1.53,1.53,0,0,0-1.53-1.53m4.08,0A1.53,1.53,0,1,0,270,38.29a1.53,1.53,0,0,0-1.53-1.53m4.08,0a1.53,1.53,0,1,0,1.53,1.53,1.53,1.53,0,0,0-1.53-1.53m4.08,0a1.53,1.53,0,1,0,1.53,1.53,1.53,1.53,0,0,0-1.53-1.53m4.08,0a1.53,1.53,0,1,0,1.53,1.53,1.53,1.53,0,0,0-1.53-1.53m4.08,0a1.53,1.53,0,1,0,1.53,1.53,1.53,1.53,0,0,0-1.53-1.53m4.08,0a1.53,1.53,0,1,0,1.53,1.53,1.53,1.53,0,0,0-1.53-1.53m4.08,0a1.53,1.53,0,1,0,1.53,1.53,1.53,1.53,0,0,0-1.53-1.53m4.08,0a1.53,1.53,0,1,0,1.53,1.53A1.53,1.53,0,0,0,297,36.77m4.08,0a1.53,1.53,0,1,0,1.53,1.53,1.53,1.53,0,0,0-1.53-1.53m-46.62,3.31A1.53,1.53,0,1,0,256,41.6a1.53,1.53,0,0,0-1.53-1.53m4.08,0a1.53,1.53,0,1,0,1.53,1.53,1.53,1.53,0,0,0-1.53-1.53m4.08,0a1.53,1.53,0,1,0,1.53,1.53,1.53,1.53,0,0,0-1.53-1.53m4.08,0a1.53,1.53,0,1,0,1.53,1.53,1.53,1.53,0,0,0-1.53-1.53m4.08,0a1.53,1.53,0,1,0,1.53,1.53,1.53,1.53,0,0,0-1.53-1.53m4.08,0a1.53,1.53,0,1,0,1.53,1.53,1.53,1.53,0,0,0-1.53-1.53m4.07,0a1.53,1.53,0,1,0,1.53,1.53,1.53,1.53,0,0,0-1.53-1.53m4.08,0a1.53,1.53,0,1,0,1.53,1.53A1.53,1.53,0,0,0,283,40.08m4.08,0a1.53,1.53,0,1,0,1.53,1.53,1.53,1.53,0,0,0-1.53-1.53m8.15,0a1.53,1.53,0,1,0,1.53,1.53,1.53,1.53,0,0,0-1.53-1.53m4.08,0a1.53,1.53,0,1,0,1.53,1.53,1.53,1.53,0,0,0-1.53-1.53m-43.06,3.31a1.53,1.53,0,1,0,1.53,1.53,1.53,1.53,0,0,0-1.53-1.53m4.08,0a1.53,1.53,0,1,0,1.53,1.53,1.53,1.53,0,0,0-1.53-1.53m4.08,0a1.53,1.53,0,1,0,1.53,1.53,1.53,1.53,0,0,0-1.53-1.53m4.08,0A1.53,1.53,0,1,0,270,44.92a1.53,1.53,0,0,0-1.53-1.53m8.15,0a1.53,1.53,0,1,0,1.53,1.53,1.53,1.53,0,0,0-1.53-1.53m4.08,0a1.53,1.53,0,1,0,1.53,1.53,1.53,1.53,0,0,0-1.53-1.53m4.08,0a1.53,1.53,0,1,0,1.53,1.53,1.53,1.53,0,0,0-1.53-1.53m4.08,0a1.53,1.53,0,1,0,1.53,1.53,1.53,1.53,0,0,0-1.53-1.53m8.15,0a1.53,1.53,0,1,0,1.53,1.53A1.53,1.53,0,0,0,297,43.39m4.08,0a1.53,1.53,0,1,0,1.53,1.53,1.53,1.53,0,0,0-1.53-1.53m-1.78,3.31a1.53,1.53,0,1,0,1.53,1.53,1.53,1.53,0,0,0-1.53-1.53M301.07,50a1.53,1.53,0,1,0,1.53,1.53A1.53,1.53,0,0,0,301.07,50m-1.78,3.31a1.53,1.53,0,1,0,1.53,1.53,1.53,1.53,0,0,0-1.53-1.53m4.07,0a1.53,1.53,0,1,0,1.53,1.53,1.53,1.53,0,0,0-1.53-1.53M297,56.63a1.53,1.53,0,1,0,1.53,1.53A1.53,1.53,0,0,0,297,56.63m4.08,0a1.53,1.53,0,1,0,1.53,1.53,1.53,1.53,0,0,0-1.53-1.53m4.07,0a1.53,1.53,0,1,0,1.53,1.53,1.53,1.53,0,0,0-1.53-1.53m-5.86,3.31a1.53,1.53,0,1,0,1.53,1.53,1.53,1.53,0,0,0-1.53-1.53m4.07,0a1.53,1.53,0,1,0,1.53,1.53,1.53,1.53,0,0,0-1.53-1.53m4.08,0A1.53,1.53,0,1,0,309,61.48a1.53,1.53,0,0,0-1.53-1.53M239.8,10.16a1.53,1.53,0,1,0,1.53,1.53,1.53,1.53,0,0,0-1.53-1.53m4.08,0a1.53,1.53,0,1,0,1.53,1.53,1.53,1.53,0,0,0-1.53-1.53m-9.94,3.31A1.53,1.53,0,1,0,235.47,15a1.53,1.53,0,0,0-1.53-1.53m4.08,0A1.53,1.53,0,1,0,239.55,15,1.53,1.53,0,0,0,238,13.47m-6.37,3.31a1.53,1.53,0,1,0,1.53,1.53,1.53,1.53,0,0,0-1.53-1.53m4.08,0a1.53,1.53,0,1,0,1.53,1.53,1.53,1.53,0,0,0-1.53-1.53m4.07,0a1.53,1.53,0,1,0,1.53,1.53,1.53,1.53,0,0,0-1.53-1.53m4.08,0a1.53,1.53,0,1,0,1.53,1.53,1.53,1.53,0,0,0-1.53-1.53m-14,3.31a1.53,1.53,0,1,0,1.53,1.53,1.53,1.53,0,0,0-1.53-1.53m4.07,0a1.53,1.53,0,1,0,1.53,1.53,1.53,1.53,0,0,0-1.53-1.53m4.08,0a1.53,1.53,0,1,0,1.53,1.53A1.53,1.53,0,0,0,238,20.09m-10.44,3.31a1.53,1.53,0,1,0,1.53,1.53,1.53,1.53,0,0,0-1.53-1.53m4.07,0a1.53,1.53,0,1,0,1.53,1.53,1.53,1.53,0,0,0-1.53-1.53m4.08,0a1.53,1.53,0,1,0,1.53,1.53,1.53,1.53,0,0,0-1.53-1.53m4.07,0a1.53,1.53,0,1,0,1.53,1.53,1.53,1.53,0,0,0-1.53-1.53m4.08,0a1.53,1.53,0,1,0,1.53,1.53,1.53,1.53,0,0,0-1.53-1.53m-9.94,3.31a1.53,1.53,0,1,0,1.53,1.53,1.53,1.53,0,0,0-1.53-1.53m4.08,0a1.53,1.53,0,1,0,1.53,1.53A1.53,1.53,0,0,0,238,26.72M227.58,30a1.53,1.53,0,1,0,1.53,1.53A1.53,1.53,0,0,0,227.58,30m4.07,0a1.53,1.53,0,1,0,1.53,1.53A1.53,1.53,0,0,0,231.65,30m4.08,0a1.53,1.53,0,1,0,1.53,1.53A1.53,1.53,0,0,0,235.73,30m4.07,0a1.53,1.53,0,1,0,1.53,1.53A1.53,1.53,0,0,0,239.8,30m4.08,0a1.53,1.53,0,1,0,1.53,1.53A1.53,1.53,0,0,0,243.88,30m-9.94,3.31a1.53,1.53,0,1,0,1.53,1.53,1.53,1.53,0,0,0-1.53-1.53m4.08,0a1.53,1.53,0,1,0,1.53,1.53A1.53,1.53,0,0,0,238,33.34m-6.37,3.31a1.53,1.53,0,1,0,1.53,1.53,1.53,1.53,0,0,0-1.53-1.53m4.08,0a1.53,1.53,0,1,0,1.53,1.53,1.53,1.53,0,0,0-1.53-1.53m4.07,0a1.53,1.53,0,1,0,1.53,1.53,1.53,1.53,0,0,0-1.53-1.53M229.87,40a1.53,1.53,0,1,0,1.53,1.53A1.53,1.53,0,0,0,229.87,40m4.07,0a1.53,1.53,0,1,0,1.53,1.53A1.53,1.53,0,0,0,233.94,40M238,40a1.53,1.53,0,1,0,1.53,1.53A1.53,1.53,0,0,0,238,40m-6.37,3.31a1.53,1.53,0,1,0,1.53,1.53,1.53,1.53,0,0,0-1.53-1.53m4.08,0a1.53,1.53,0,1,0,1.53,1.53,1.53,1.53,0,0,0-1.53-1.53m-1.79,3.31a1.53,1.53,0,1,0,1.53,1.53,1.53,1.53,0,0,0-1.53-1.53m1.79,3.31a1.53,1.53,0,1,0,1.53,1.53,1.53,1.53,0,0,0-1.53-1.53" transform="translate(-7.63 -6.96)"/></g></svg>